<?xml version="1.0" encoding="iso-8859-1"?>
<!-- Generator: Adobe Illustrator 19.0.0, SVG Export Plug-In . SVG Version: 6.00 Build 0)  -->
<svg version="1.1" id="Capa_1" xmlns="http://www.w3.org/2000/svg" xmlns:xlink="http://www.w3.org/1999/xlink" x="0px" y="0px"
	 viewBox="0 0 512 512" style="enable-background:new 0 0 512 512;" xml:space="preserve">
<g>
	<g>
		<g>
			<path d="M256,128c-37.641,0-68.267,30.626-68.267,68.267c0,37.641,30.626,68.267,68.267,68.267
				c37.641,0,68.267-30.626,68.267-68.267C324.267,158.626,293.641,128,256,128z"/>
			<path d="M316.117,316.493c-36.548,21.367-83.686,21.367-120.235,0c-31.462,20.378-50.816,55.595-50.816,93.107v77.09
				C178.654,502.912,216.286,512,256,512c39.714,0,77.346-9.088,110.933-25.31V409.6C366.933,372.087,347.58,336.87,316.117,316.493
				z"/>
			<path d="M256,0C114.842,0,0,114.842,0,256c0,94.549,51.558,177.229,128,221.56V409.6c0-45.235,24.354-87.569,63.573-110.49
				c2.782-1.621,6.246-1.527,8.943,0.205c33.22,21.478,77.747,21.478,110.967,0c2.705-1.732,6.161-1.826,8.943-0.205
				C359.646,322.031,384,364.365,384,409.6v67.959c76.442-44.331,128-127.01,128-221.56C512,114.842,397.158,0,256,0z M256,281.6
				c-47.053,0-85.333-38.281-85.333-85.333s38.281-85.333,85.333-85.333s85.333,38.281,85.333,85.333S303.053,281.6,256,281.6z"/>
		</g>
	</g>
</g>
<g>
</g>
<g>
</g>
<g>
</g>
<g>
</g>
<g>
</g>
<g>
</g>
<g>
</g>
<g>
</g>
<g>
</g>
<g>
</g>
<g>
</g>
<g>
</g>
<g>
</g>
<g>
</g>
<g>
</g>
</svg>
